<?xml version="1.0" encoding="UTF-8"?>
<svg version="1.1" xmlns="http://www.w3.org/2000/svg" xmlns:xlink="http://www.w3.org/1999/xlink">
<defs>

</defs>
<symbol id="i-icon-github" xmlns="http://www.w3.org/2000/svg" viewBox="0 0 24 24"><path d="M12 0C5.374 0 0 5.373 0 12c0 5.302 3.438 9.8 8.207 11.387.599.111.793-.261.793-.577v-2.234c-3.338.726-4.033-1.416-4.033-1.416-.546-1.387-1.333-1.756-1.333-1.756-1.089-.745.083-.729.083-.729 1.205.084 1.839 1.237 1.839 1.237 1.07 1.834 2.807 1.304 3.492.997.107-.775.418-1.305.762-1.604-2.665-.305-5.467-1.334-5.467-5.931 0-1.311.469-2.381 1.236-3.221-.124-.303-.535-1.524.117-3.176 0 0 1.008-.322 3.301 1.23A11.509 11.509 0 0112 5.803c1.02.005 2.047.138 3.006.404 2.291-1.552 3.297-1.23 3.297-1.23.653 1.653.242 2.874.118 3.176.77.84 1.235 1.911 1.235 3.221 0 4.609-2.807 5.624-5.479 5.921.43.372.823 1.102.823 2.222v3.293c0 .319.192.694.801.576C20.566 21.797 24 17.3 24 12c0-6.627-5.373-12-12-12z"/></symbol>
<symbol id="i-icon-maps" xmlns="http://www.w3.org/2000/svg" fill="currentColor" class="bi bi-pin-angle" viewBox="0 0 16 16" color="#fff"><path d="M9.828.722a.5.5 0 01.354.146l4.95 4.95a.5.5 0 010 .707c-.48.48-1.072.588-1.503.588-.177 0-.335-.018-.46-.039l-3.134 3.134a5.927 5.927 0 01.16 1.013c.046.702-.032 1.687-.72 2.375a.5.5 0 01-.707 0l-2.829-2.828-3.182 3.182c-.195.195-1.219.902-1.414.707-.195-.195.512-1.22.707-1.414l3.182-3.182-2.828-2.829a.5.5 0 010-.707c.688-.688 1.673-.767 2.375-.72a5.922 5.922 0 011.013.16l3.134-3.133a2.772 2.772 0 01-.04-.461c0-.43.108-1.022.589-1.503a.5.5 0 01.353-.146zm.122 2.112v-.002.002zm0-.002v.002a.5.5 0 01-.122.51L6.293 6.878a.5.5 0 01-.511.12H5.78l-.014-.004a4.507 4.507 0 00-.288-.076 4.922 4.922 0 00-.765-.116c-.422-.028-.836.008-1.175.15l5.51 5.509c.141-.34.177-.753.149-1.175a4.924 4.924 0 00-.192-1.054l-.004-.013v-.001a.5.5 0 01.12-.512l3.536-3.535a.5.5 0 01.532-.115l.096.022c.087.017.208.034.344.034.114 0 .23-.011.343-.04L9.927 2.028c-.029.113-.04.23-.04.343a1.779 1.779 0 00.062.46z" fill="#fff"/></symbol>
<symbol id="i-icon-skype" xmlns="http://www.w3.org/2000/svg" viewBox="0 0 24 24"><path d="M22.987 13.966C24.344 6.201 17.571-.446 9.935.987 4.114-2.574-2.568 4.213 1 10.016c-1.387 7.747 5.384 14.48 13.083 13.01 5.832 3.536 12.493-3.26 8.904-9.06zm-10.603 5.891c-3.181 0-6.378-1.448-6.362-3.941.005-.752.564-1.442 1.309-1.442 1.873 0 1.855 2.795 4.837 2.795 2.093 0 2.807-1.146 2.807-1.944 0-2.886-9.043-1.117-9.043-6.543 0-2.938 2.402-4.962 6.179-4.741 3.602.213 5.713 1.803 5.917 3.289.101.971-.542 1.727-1.659 1.727-1.628 0-1.795-2.181-4.6-2.181-1.266 0-2.334.528-2.334 1.674 0 2.395 8.99 1.005 8.99 6.276-.001 3.039-2.423 5.031-6.041 5.031z"/></symbol>
<symbol id="i-icon-tel" xmlns="http://www.w3.org/2000/svg" fill="currentColor" class="bi bi-phone" viewBox="0 0 16 16" color="#fff"><path d="M11 1a1 1 0 011 1v12a1 1 0 01-1 1H5a1 1 0 01-1-1V2a1 1 0 011-1h6zM5 0a2 2 0 00-2 2v12a2 2 0 002 2h6a2 2 0 002-2V2a2 2 0 00-2-2H5z" fill="#fff"/><path d="M8 14a1 1 0 100-2 1 1 0 000 2z" fill="#fff"/></symbol>
<symbol id="i-icon-vk" xmlns="http://www.w3.org/2000/svg" viewBox="0 0 24 24"><path class="st0" d="M13.162 18.994c.609 0 .858-.406.851-.915-.031-1.917.714-2.949 2.059-1.604 1.488 1.488 1.796 2.519 3.603 2.519h3.2c.808 0 1.126-.26 1.126-.668 0-.863-1.421-2.386-2.625-3.504-1.686-1.565-1.765-1.602-.313-3.486C22.864 8.997 25.22 6 23.136 6h-3.981c-.772 0-.828.435-1.103 1.083-.995 2.347-2.886 5.387-3.604 4.922-.751-.485-.407-2.406-.35-5.261.015-.754.011-1.271-1.141-1.539A8.07 8.07 0 0011.148 5c-2.273 0-3.841.953-2.95 1.119 1.571.293 1.42 3.692 1.054 5.16-.638 2.556-3.036-2.024-4.035-4.305C4.976 6.426 4.902 6 4.042 6H.787C.295 6 0 6.16 0 6.516c0 .602 2.96 6.72 5.786 9.77 2.756 2.975 5.48 2.708 7.376 2.708z"/></symbol>
</svg>