<?xml version="1.0" encoding="utf-8"?>
<!-- Generator: Adobe Illustrator 23.0.0, SVG Export Plug-In . SVG Version: 6.00 Build 0)  -->
<svg version="1.1" id="Слой_1" xmlns="http://www.w3.org/2000/svg" xmlns:xlink="http://www.w3.org/1999/xlink" x="0px" y="0px"
	 viewBox="0 0 60.9 39.8" style="enable-background:new 0 0 60.9 39.8;" xml:space="preserve">
<style type="text/css">
	.st0{fill:none;stroke:#FFFFFF;stroke-width:1.5;stroke-linecap:round;stroke-linejoin:round;stroke-miterlimit:10;}
</style>
<path class="st0" d="M16,39.1C9.2,34.7,4.7,27.2,4.7,18.6c0-5,1.5-9.7,4.2-13.6"/>
<path class="st0" d="M14.5,28.4c0,0,1.3,2.2,0.9,4.5c-0.4,2.3-2.3,3.9-2.3,3.9s-1.3-2.2-0.9-4.5C12.5,30,14.5,28.4,14.5,28.4z"/>
<path class="st0" d="M4.6,35.6c0,0,2.2-1.3,4.5-0.9c2.3,0.4,3.9,2.4,3.9,2.4s-2.2,1.3-4.5,0.9S4.6,35.6,4.6,35.6z"/>
<path class="st0" d="M10.9,24.1c0,0,1.2,2.2,0.7,4.5c-0.5,2.3-2.5,3.8-2.5,3.8s-1.2-2.2-0.7-4.5S10.9,24.1,10.9,24.1z"/>
<path class="st0" d="M1.5,28c0,0,2.5-0.5,4.5,0.7s2.8,3.5,2.8,3.5s-2.5,0.5-4.5-0.7C2.3,30.4,1.5,28,1.5,28z"/>
<path class="st0" d="M8.8,18.6c0,0,0.8,2.2,0,4.3s-2.9,3.1-2.9,3.1s-0.8-2.2,0-4.3S8.8,18.6,8.8,18.6z"/>
<path class="st0" d="M0.8,19.6c0,0,2.3,0.4,3.7,2.2c1.3,1.7,1.2,4.1,1.2,4.1S3.3,25.4,2,23.7C0.6,22,0.8,19.6,0.8,19.6z"/>
<path class="st0" d="M9.9,11.7c0,0,0,2.3-1.4,3.8s-3.6,1.8-3.6,1.8s0-2.3,1.4-3.8S9.9,11.7,9.9,11.7z"/>
<path class="st0" d="M1.5,10.5c0,0,2,0.9,2.9,2.8s0.2,4.1,0.2,4.1s-2-0.9-2.9-2.8S1.5,10.5,1.5,10.5z"/>
<path class="st0" d="M12.4,7.2c0,0-0.8,1.7-2.4,2.4S6.5,9.6,6.5,9.6S7.4,7.9,9,7.2S12.4,7.2,12.4,7.2z"/>
<path class="st0" d="M4.3,3.8c0,0,1.6,1,2.2,2.6S6.3,9.9,6.3,9.9s-1.6-1-2.2-2.6S4.3,3.8,4.3,3.8z"/>
<path class="st0" d="M13.6,0.8c0,0-0.2,1.9-1.5,3S8.9,5,8.9,5s0.2-1.9,1.5-3S13.6,0.8,13.6,0.8z"/>
<path class="st0" d="M44.9,39.1c6.8-4.3,11.2-11.9,11.2-20.5c0-5-1.5-9.7-4.2-13.6"/>
<path class="st0" d="M46.4,28.4c0,0-1.3,2.2-0.9,4.5s2.3,3.9,2.3,3.9s1.3-2.2,0.9-4.5C48.4,30,46.4,28.4,46.4,28.4z"/>
<path class="st0" d="M56.3,35.6c0,0-2.2-1.3-4.5-0.9c-2.3,0.4-3.9,2.4-3.9,2.4s2.2,1.3,4.5,0.9S56.3,35.6,56.3,35.6z"/>
<path class="st0" d="M50,24.1c0,0-1.2,2.2-0.7,4.5c0.5,2.3,2.5,3.8,2.5,3.8s1.2-2.2,0.7-4.5C52,25.6,50,24.1,50,24.1z"/>
<path class="st0" d="M59.4,28c0,0-2.5-0.5-4.5,0.7s-2.8,3.5-2.8,3.5s2.5,0.5,4.5-0.7C58.6,30.4,59.4,28,59.4,28z"/>
<path class="st0" d="M52.1,18.6c0,0-0.8,2.2,0,4.3s2.9,3.1,2.9,3.1s0.8-2.2,0-4.3S52.1,18.6,52.1,18.6z"/>
<path class="st0" d="M60.1,19.6c0,0-2.3,0.4-3.7,2.2c-1.3,1.7-1.2,4.1-1.2,4.1s2.3-0.4,3.7-2.2C60.3,22,60.1,19.6,60.1,19.6z"/>
<path class="st0" d="M51,11.7c0,0,0,2.3,1.4,3.8s3.6,1.8,3.6,1.8s0-2.3-1.4-3.8C53.2,12,51,11.7,51,11.7z"/>
<path class="st0" d="M59.4,10.5c0,0-2,0.9-2.9,2.8s-0.2,4.1-0.2,4.1s2-0.9,2.9-2.8S59.4,10.5,59.4,10.5z"/>
<path class="st0" d="M48.5,7.2c0,0,0.8,1.7,2.4,2.4c1.6,0.7,3.4,0.1,3.4,0.1s-0.8-1.7-2.4-2.4C50.3,6.6,48.5,7.2,48.5,7.2z"/>
<path class="st0" d="M56.5,3.8c0,0-1.6,1-2.2,2.6c-0.5,1.7,0.2,3.4,0.2,3.4s1.6-1,2.2-2.6C57.3,5.5,56.5,3.8,56.5,3.8z"/>
<path class="st0" d="M47.4,0.8c0,0,0.2,1.9,1.5,3S52.1,5,52.1,5s-0.2-1.9-1.5-3S47.4,0.8,47.4,0.8z"/>
</svg>
