<?xml version="1.0" standalone="no"?>
<!-- Generator: Adobe Fireworks 10, Export SVG Extension by Aaron Beall (http://fireworks.abeall.com) . Version: 0.6.0  -->
<!DOCTYPE svg PUBLIC "-//W3C//DTD SVG 1.1//EN" "http://www.w3.org/Graphics/SVG/1.1/DTD/svg11.dtd">
<svg id="" viewBox="0 0 139 131" style="background-color:#ffffff00" version="1.1"
xmlns="http://www.w3.org/2000/svg" xmlns:xlink="http://www.w3.org/1999/xlink" xml:space="preserve"
x="0px" y="0px" width="139px" height="131px"
>
<g id="Capa%201">
<path d="M 56.2685 122.7962 C 56.3898 121.3175 56.38 118.4157 55.0141 115.1411 C 53.4369 111.3539 48.6796 109.723 48.6796 109.723 C 48.6796 109.723 47.529 115.1928 49.7696 118.7954 C 50.4917 119.9569 51.8635 121.095 53.1492 121.9969 C 51.0945 121.4073 48.8088 120.6245 46.3588 119.5811 C 46.7306 118.1854 47.2296 115.3655 46.4644 111.9484 C 45.5878 108.0266 41.2728 105.644 41.2728 105.644 C 41.2728 105.644 39.2318 110.7283 40.7797 114.5857 C 41.2865 115.8448 42.4391 117.1976 43.5408 118.2937 C 42.2043 117.6446 40.8325 116.9214 39.4314 116.1034 C 38.6604 115.6866 37.8874 115.2318 37.1144 114.7467 C 37.7074 113.4964 38.7132 110.8239 38.5547 107.3199 C 38.3786 103.3854 34.6213 100.3538 34.6213 100.3538 C 34.6213 100.3538 31.7819 104.9149 32.6194 108.8982 C 32.913 110.2969 33.9071 111.9249 34.8425 113.2202 C 32.8308 111.7824 30.8406 110.1241 28.915 108.2735 C 29.6958 107.1784 31.14 104.7588 31.5862 101.324 C 32.0891 97.4998 28.9796 93.9353 28.9796 93.9353 C 28.9796 93.9353 25.4631 97.8541 25.5903 101.8403 C 25.6353 103.2156 26.2948 104.9178 26.9621 106.3116 C 25.2459 104.4981 23.6021 102.5246 22.0561 100.4211 C 23.0131 99.4666 24.7625 97.3973 25.7566 94.231 C 26.8936 90.6235 24.5003 86.6559 24.5003 86.6559 C 24.5003 86.6559 20.4358 89.8407 19.882 93.7108 C 19.7 94.9777 20.0014 96.6204 20.381 98.0327 C 19.0347 96.0074 17.7862 93.8738 16.659 91.6474 C 17.7314 90.9046 19.8096 89.1985 21.3301 86.2703 C 23.0424 82.982 21.4104 78.7469 21.4104 78.7469 C 21.4104 78.7469 16.9447 81.1304 15.7491 84.7721 C 15.3381 86.0263 15.3714 87.7754 15.5162 89.2502 C 14.481 86.9594 13.5828 84.5827 12.8431 82.1348 C 13.9781 81.6233 16.3342 80.3291 18.3478 77.7035 C 20.5611 74.8212 19.7098 70.4553 19.7098 70.4553 C 19.7098 70.4553 14.9917 71.9984 13.2188 75.3102 C 12.5652 76.5234 12.3069 78.3662 12.2071 79.8713 C 11.5554 77.3345 11.078 74.7255 10.806 72.0619 C 11.9684 71.773 14.4986 70.9297 16.9193 68.7091 C 19.5494 66.3002 19.4711 61.9441 19.4711 61.9441 C 19.4711 61.9441 14.6552 62.6313 12.3793 65.5282 C 11.5339 66.5989 10.9664 68.3568 10.6142 69.7984 C 10.3559 67.0264 10.3304 64.2691 10.5085 61.5508 C 11.6318 61.4824 14.2853 61.1262 17.0758 59.3459 C 20.0229 57.4679 20.6922 53.2504 20.6922 53.2504 C 20.6922 53.2504 15.9252 53.0971 13.2345 55.5031 C 12.1562 56.4675 11.2521 58.2575 10.6651 59.6455 C 10.9606 56.7212 11.4811 53.8477 12.2032 51.0572 C 13.3127 51.1802 15.9213 51.2768 18.8977 50.0411 C 22.062 48.7293 23.4279 44.7704 23.4279 44.7704 C 23.4279 44.7704 18.8527 43.8139 15.845 45.6811 C 14.6806 46.4034 13.5397 47.9006 12.7394 49.1207 C 13.5613 46.336 14.573 43.6421 15.7393 41.0682 C 16.7901 41.3757 19.2891 41.9125 22.3712 41.2244 C 25.6509 40.4963 27.6411 36.9083 27.6411 36.9083 C 27.6411 36.9083 23.3927 35.208 20.1677 36.4993 C 18.9134 37.001 17.5475 38.267 16.567 39.3113 C 17.8645 36.6692 19.3224 34.1705 20.8976 31.8445 C 21.7783 32.2945 24.1598 33.3223 27.3828 33.1768 C 30.6704 33.0304 33.2045 29.9041 33.2045 29.9041 C 33.2045 29.9041 29.3945 27.5431 26.0638 28.2429 C 24.6275 28.5435 22.8996 29.7245 21.7587 30.6108 C 23.5688 28.075 25.5159 25.7705 27.5393 23.7433 C 28.2184 24.2733 30.3944 25.7793 33.6703 26.2049 C 36.8698 26.6226 39.8521 24.037 39.8521 24.037 C 39.8521 24.037 36.5743 21.1099 33.2398 21.2192 C 31.6606 21.27 29.5628 22.2841 28.3338 22.9615 C 29.4532 21.8878 30.594 20.901 31.7447 20.0089 C 33.0323 18.9381 34.3063 17.9699 35.5587 17.0827 C 36.1438 17.7278 37.9833 19.5267 41.0439 20.4832 C 44.0575 21.429 47.3764 19.4389 47.3764 19.4389 C 47.3764 19.4389 44.7111 16.0598 41.4763 15.5981 C 39.9676 15.3824 37.813 15.9836 36.5039 16.4248 C 39.3296 14.5 42.0066 13.0145 44.3901 11.8725 C 44.7541 12.4747 46.2218 14.664 49.163 16.1837 C 51.9124 17.6097 55.4524 16.252 55.4524 16.252 C 55.4524 16.252 53.4564 12.5381 50.4154 11.5435 C 48.8264 11.0253 46.2844 11.3542 45.0379 11.568 C 47.1631 10.5812 49.0319 9.8677 50.5348 9.3504 C 51.1825 9.6676 53.3273 10.5919 55.2685 9.9262 C 58.1667 8.9336 59.6011 6.9844 59.6011 6.9844 C 59.6011 6.9844 56.609 5.8415 54.8302 6.1421 C 52.6032 6.5227 50.7833 8.6827 50.4095 9.1522 C 49.1728 9.5407 47.6953 10.0551 46.032 10.7422 C 47.1043 10.0082 49.071 8.5324 49.8303 7.0996 C 51.3293 4.2739 50.1806 0.2203 50.1806 0.2203 C 50.1806 0.2203 46.6856 1.6952 45.6973 4.6233 C 44.6269 7.7984 45.122 10.424 45.2707 11.0633 C 42.8501 12.1077 40.0811 13.5035 37.1242 15.3755 C 38.0948 14.4034 39.6271 12.707 40.1006 11.2351 C 41.1065 8.1303 39.2298 4.2612 39.2298 4.2612 C 39.2298 4.2612 35.9814 6.3597 35.5078 9.4782 C 35.0068 12.7744 35.9129 15.2809 36.2025 15.9729 C 34.6194 17.0153 32.9912 18.1876 31.3396 19.5179 C 30.6058 20.0694 29.8759 20.6628 29.1499 21.2885 C 29.9287 20.1182 30.8935 18.4394 31.0833 17.0758 C 31.5412 13.7797 28.9698 10.222 28.9698 10.222 C 28.9698 10.222 26.0756 12.9052 26.1539 16.1222 C 26.2321 19.3139 27.4258 21.5852 27.917 22.3895 C 25.8838 24.2742 23.9093 26.442 22.0542 28.8383 C 22.606 27.5401 23.2107 25.7949 23.1618 24.4607 C 23.0346 21.0669 19.8155 17.9465 19.8155 17.9465 C 19.8155 17.9465 17.387 21.1548 18.0386 24.3738 C 18.6805 27.5557 20.2773 29.625 20.9172 30.3512 C 19.2206 32.6888 17.6394 35.2207 16.2187 37.9136 C 16.5534 36.5013 16.8762 34.5775 16.5807 33.212 C 15.8508 29.8241 12.0642 27.257 12.0642 27.257 C 12.0642 27.257 10.1935 30.9114 11.4185 34.0299 C 12.6376 37.1377 14.6297 38.9375 15.391 39.5417 C 14.1522 42.0628 13.0544 44.705 12.1425 47.4487 C 12.2051 46.0188 12.1503 44.2326 11.6533 43.0125 C 10.3187 39.7389 6.0566 37.8287 6.0566 37.8287 C 6.0566 37.8287 4.8257 41.8296 6.6123 44.748 C 8.3324 47.5619 10.5633 49.0172 11.4948 49.5355 C 10.7414 52.0947 10.1543 54.732 9.7531 57.424 C 9.5438 56.0848 9.1817 54.57 8.5477 53.5627 C 6.626 50.5096 2.0039 49.3423 2.0039 49.3423 C 2.0039 49.3423 1.4775 53.5822 3.7885 56.1971 C 5.9274 58.6187 8.3168 59.7021 9.4146 60.1013 C 9.1543 62.6976 9.0741 65.3378 9.1974 68.0034 C 8.7512 66.7121 8.125 65.2881 7.3246 64.4057 C 4.8492 61.6757 0 61.3185 0 61.3185 C 0 61.3185 0.2211 65.6726 3.0097 67.8941 C 5.6104 69.9673 8.2307 70.6261 9.3892 70.8262 C 9.5555 73.3464 9.898 75.8275 10.4028 78.253 C 9.7336 77.0642 8.8725 75.8011 7.9411 75.0759 C 4.9666 72.7705 0.0294 73.2712 0.0294 73.2712 C 0.0294 73.2712 1.0274 77.6059 4.2249 79.3452 C 7.1603 80.943 9.8666 81.1597 11.0975 81.1626 C 11.7433 83.6008 12.5456 85.9765 13.483 88.2751 C 12.5926 87.1868 11.4889 86.041 10.4068 85.468 C 7.0076 83.6769 2.1369 85.0541 2.1369 85.0541 C 2.1369 85.0541 3.9079 89.2336 7.4284 90.4166 C 10.6807 91.5078 13.4497 91.2394 14.6767 91.0266 C 15.753 93.3389 16.9643 95.5623 18.2793 97.6823 C 17.1796 96.7278 15.843 95.7468 14.6336 95.3584 C 10.9038 94.1578 6.2503 96.4027 6.2503 96.4027 C 6.2503 96.4027 8.7747 100.2884 12.5222 100.8545 C 15.9878 101.3777 18.7275 100.6154 19.9192 100.184 C 21.3125 102.2112 22.7978 104.1272 24.3555 105.9173 C 23.1539 105.2253 21.7861 104.584 20.6119 104.422 C 16.6492 103.8764 12.3715 106.9539 12.3715 106.9539 C 12.3715 106.9539 15.5984 110.413 19.4652 110.3203 C 22.9093 110.2364 25.4611 109.0749 26.647 108.4121 C 28.3006 110.1173 30.0129 111.6829 31.7564 113.0904 C 30.5197 112.6628 29.1792 112.3319 28.0755 112.373 C 23.9974 112.5233 20.244 116.3728 20.244 116.3728 C 20.244 116.3728 24.1011 119.2795 27.9718 118.5006 C 31.3553 117.8203 33.6899 116.2479 34.7896 115.3626 C 36.0244 116.2118 37.2612 116.9828 38.4979 117.6632 C 39.2807 118.1288 40.0537 118.565 40.8188 118.976 C 39.4549 118.7495 37.9794 118.6324 36.8287 118.8793 C 32.7584 119.7519 29.6704 124.2818 29.6704 124.2818 C 29.6704 124.2818 34.0636 126.5219 37.815 125.0558 C 41.1417 123.7547 43.2219 121.7196 44.1494 120.6479 C 46.4038 121.7001 48.5427 122.5376 50.5172 123.2013 C 49.1258 123.2189 47.6562 123.3653 46.5642 123.8084 C 42.627 125.4052 40.3296 130.5051 40.3296 130.5051 C 40.3296 130.5051 45.1416 131.978 48.6503 129.8404 C 51.7461 127.9576 53.4721 125.5634 54.2216 124.3159 C 59.8555 125.8064 63.327 126.025 63.327 126.025 L 63.4287 125.0168 L 63.5325 124.0085 C 63.5325 124.0085 60.8222 123.824 56.2685 122.7962 ZM 134.777 79.3452 C 137.9726 77.6059 138.9706 73.2712 138.9706 73.2712 C 138.9706 73.2712 134.0334 72.7705 131.0589 75.0759 C 130.1275 75.8011 129.2664 77.0642 128.5972 78.253 C 129.104 75.8275 129.4445 73.3464 129.6108 70.8262 C 130.7693 70.6271 133.3876 69.9673 135.9883 67.8941 C 138.7789 65.6726 139 61.3185 139 61.3185 C 139 61.3185 134.1508 61.6757 131.6754 64.4057 C 130.875 65.29 130.2488 66.7121 129.8026 68.0034 C 129.9278 65.3388 129.8457 62.6976 129.5834 60.1013 C 130.6832 59.7021 133.0726 58.6187 135.2115 56.1971 C 137.5226 53.5822 136.9961 49.3423 136.9961 49.3423 C 136.9961 49.3423 132.374 50.5096 130.4523 53.5627 C 129.8183 54.571 129.4562 56.0858 129.2469 57.4259 C 128.8457 54.733 128.2586 52.0947 127.5072 49.5355 C 128.4367 49.0172 130.6676 47.5619 132.3877 44.748 C 134.1763 41.8296 132.9434 37.8287 132.9434 37.8287 C 132.9434 37.8287 128.6813 39.7389 127.3447 43.0125 C 126.8497 44.2326 126.7949 46.0188 126.8575 47.4487 C 125.9456 44.705 124.8478 42.0628 123.609 39.5417 C 124.3703 38.9375 126.3624 37.1377 127.5815 34.0299 C 128.8065 30.9114 126.9358 27.257 126.9358 27.257 C 126.9358 27.257 123.1511 29.8241 122.4193 33.212 C 122.1257 34.5775 122.4486 36.5032 122.7813 37.9146 C 121.3606 35.2227 119.7794 32.6888 118.0828 30.3512 C 118.7227 29.625 120.3195 27.5557 120.9614 24.3738 C 121.6111 21.1548 119.1845 17.9465 119.1845 17.9465 C 119.1845 17.9465 115.9654 21.0669 115.8382 24.4607 C 115.7893 25.7949 116.394 27.5401 116.9478 28.8383 C 115.0887 26.442 113.1162 24.2742 111.083 22.3895 C 111.5742 21.5852 112.7679 19.3139 112.8461 16.1222 C 112.9244 12.9052 110.0321 10.222 110.0321 10.222 C 110.0321 10.222 107.4608 13.7797 107.9187 17.0758 C 108.1065 18.4394 109.0713 20.1182 109.8501 21.2885 C 109.1241 20.6628 108.3942 20.0694 107.6604 19.5179 C 106.0088 18.1876 104.3806 17.0153 102.7975 15.9729 C 103.0871 15.2819 103.9951 12.7744 103.4941 9.4782 C 103.0206 6.3597 99.7721 4.2612 99.7721 4.2612 C 99.7721 4.2612 97.8935 8.1303 98.8994 11.2351 C 99.3749 12.707 100.9052 14.4034 101.8778 15.3775 C 98.9189 13.5035 96.1519 12.1077 93.7293 11.0633 C 93.878 10.424 94.3731 7.7984 93.3027 4.6233 C 92.3144 1.6952 88.8194 0.2203 88.8194 0.2203 C 88.8194 0.2203 87.6727 4.2739 89.1697 7.0996 C 89.927 8.5315 91.8957 10.0072 92.968 10.7422 C 91.3047 10.0551 89.8272 9.5407 88.5905 9.1522 C 88.2167 8.6827 86.3968 6.5227 84.1718 6.1421 C 82.391 5.8415 79.3989 6.9844 79.3989 6.9844 C 79.3989 6.9844 80.8333 8.9336 83.7315 9.9262 C 85.6747 10.5919 87.8194 9.6676 88.4652 9.3504 C 89.9681 9.8677 91.8389 10.5812 93.9641 11.568 C 92.7175 11.3542 90.1755 11.0253 88.5846 11.5435 C 85.5436 12.5381 83.5475 16.252 83.5475 16.252 C 83.5475 16.252 87.0876 17.6097 89.837 16.1837 C 92.7782 14.664 94.2459 12.4747 94.6099 11.8725 C 96.9934 13.0145 99.6723 14.5 102.4961 16.4258 C 101.187 15.9846 99.0344 15.3824 97.5217 15.5981 C 94.2889 16.0598 91.6236 19.4389 91.6236 19.4389 C 91.6236 19.4389 94.9425 21.429 97.9581 20.4832 C 101.0187 19.5267 102.8582 17.7278 103.4433 17.0827 C 104.6937 17.9699 105.9677 18.9381 107.2573 20.0089 C 108.406 20.901 109.5468 21.8878 110.6681 22.9615 C 109.4392 22.285 107.3414 21.27 105.7583 21.2192 C 102.4257 21.1099 99.1498 24.037 99.1498 24.037 C 99.1498 24.037 102.1302 26.6226 105.3297 26.2049 C 108.6056 25.7793 110.7816 24.2733 111.4607 23.7423 C 113.4841 25.7705 115.4312 28.076 117.2413 30.6108 C 116.1024 29.7255 114.3745 28.5435 112.9362 28.2429 C 109.6055 27.5431 105.7955 29.9041 105.7955 29.9041 C 105.7955 29.9041 108.3296 33.0304 111.6172 33.1768 C 114.8402 33.3223 117.2237 32.2945 118.1023 31.8445 C 119.6777 34.1705 121.1355 36.6701 122.433 39.3133 C 121.4525 38.267 120.0866 37.001 118.8303 36.4993 C 115.6093 35.208 111.3589 36.9083 111.3589 36.9083 C 111.3589 36.9083 113.351 40.4963 116.6288 41.2244 C 119.7109 41.9125 122.2118 41.3757 123.2607 41.0682 C 124.427 43.6421 125.4407 46.337 126.2606 49.1227 C 125.4603 47.9026 124.3194 46.4043 123.1531 45.6811 C 120.1473 43.8139 115.574 44.7704 115.574 44.7704 C 115.574 44.7704 116.938 48.7293 120.1023 50.0411 C 123.0787 51.2768 125.6873 51.1802 126.7968 51.0572 C 127.5189 53.8477 128.0394 56.7212 128.3349 59.6455 C 127.7479 58.2585 126.8438 56.4675 125.7655 55.5031 C 123.0748 53.0971 118.3078 53.2504 118.3078 53.2504 C 118.3078 53.2504 118.9771 57.4679 121.9242 59.3459 C 124.7147 61.1262 127.3702 61.4824 128.4934 61.5508 C 128.6696 64.2691 128.6441 67.0264 128.3858 69.8004 C 128.0336 68.3568 127.4661 66.5989 126.6227 65.5282 C 124.3448 62.6313 119.5289 61.9441 119.5289 61.9441 C 119.5289 61.9441 119.4506 66.3002 122.0807 68.7091 C 124.5014 70.9297 127.0316 71.773 128.194 72.0619 C 127.922 74.7255 127.4445 77.3345 126.7949 79.8713 C 126.6951 78.3662 126.4348 76.5234 125.7831 75.3102 C 124.0102 71.9984 119.2921 70.4553 119.2921 70.4553 C 119.2921 70.4553 118.4389 74.8212 120.6522 77.7035 C 122.6658 80.3291 125.0219 81.6233 126.1569 82.1348 C 125.4172 84.5827 124.519 86.9594 123.4838 89.2502 C 123.6286 87.7754 123.6638 86.0263 123.2509 84.7721 C 122.0553 81.1304 117.5896 78.7469 117.5896 78.7469 C 117.5896 78.7469 115.9576 82.982 117.6699 86.2703 C 119.1923 89.1985 121.2686 90.9046 122.341 91.6474 C 121.2158 93.8738 119.9673 96.0074 118.619 98.0327 C 118.9986 96.6204 119.3 94.9777 119.118 93.7108 C 118.5642 89.8407 114.5017 86.6559 114.5017 86.6559 C 114.5017 86.6559 112.1064 90.6235 113.2434 94.231 C 114.2375 97.3973 115.9869 99.4666 116.9458 100.4192 C 115.3979 102.5246 113.7541 104.4962 112.0379 106.3107 C 112.7052 104.9159 113.3647 103.2156 113.4097 101.8403 C 113.5389 97.8541 110.0184 93.9353 110.0184 93.9353 C 110.0184 93.9353 106.9128 97.4998 107.4138 101.324 C 107.8619 104.7588 109.3042 107.1784 110.085 108.2735 C 108.1594 110.1241 106.1712 111.7824 104.1575 113.2192 C 105.0929 111.9249 106.089 110.2969 106.3806 108.8982 C 107.2181 104.9149 104.3787 100.3538 104.3787 100.3538 C 104.3787 100.3538 100.6234 103.3854 100.4453 107.3199 C 100.2868 110.8239 101.2946 113.4964 101.8856 114.7467 C 101.1126 115.2318 100.3396 115.6866 99.5667 116.1034 C 98.1655 116.9214 96.7957 117.6446 95.4592 118.2937 C 96.5609 117.1976 97.7135 115.8448 98.2203 114.5857 C 99.7682 110.7283 97.7272 105.644 97.7272 105.644 C 97.7272 105.644 93.4122 108.0266 92.5356 111.9484 C 91.7704 115.3655 92.2694 118.1854 92.6412 119.5811 C 90.1912 120.6245 87.9055 121.4073 85.8508 121.9969 C 87.1365 121.095 88.5063 119.9569 89.2284 118.7954 C 91.471 115.1928 90.3204 109.723 90.3204 109.723 C 90.3204 109.723 85.5631 111.3539 83.9859 115.1411 C 82.6219 118.4157 82.6102 121.3175 82.7315 122.7962 C 78.1798 123.824 75.4695 124.0085 75.4695 124.0085 L 75.5713 125.0168 L 75.675 126.025 C 75.675 126.025 79.1445 125.8064 84.7784 124.3159 C 85.5279 125.5634 87.2539 127.9576 90.3497 129.8404 C 93.8584 131.978 98.6704 130.5051 98.6704 130.5051 C 98.6704 130.5051 96.373 125.4052 92.4358 123.8084 C 91.3438 123.3653 89.8742 123.2189 88.4828 123.2013 C 90.4573 122.5376 92.5962 121.7001 94.8506 120.6479 C 95.7781 121.7196 97.8583 123.7547 101.185 125.0558 C 104.9364 126.5219 109.3296 124.2818 109.3296 124.2818 C 109.3296 124.2818 106.2416 119.7519 102.1713 118.8793 C 101.0206 118.6324 99.5471 118.7495 98.1792 118.976 C 98.9463 118.565 99.7193 118.1288 100.5021 117.6632 C 101.7369 116.9828 102.9775 116.2118 104.2084 115.3626 C 105.3082 116.2459 107.6447 117.8203 111.0282 118.5006 C 114.8989 119.2795 118.756 116.3728 118.756 116.3728 C 118.756 116.3728 115.0046 112.5233 110.9245 112.373 C 109.8208 112.3319 108.4803 112.6628 107.2436 113.0904 C 108.9871 111.6829 110.6994 110.1173 112.355 108.4121 C 113.5389 109.0749 116.0907 110.2364 119.5348 110.3203 C 123.4016 110.413 126.6285 106.9539 126.6285 106.9539 C 126.6285 106.9539 122.3508 103.8764 118.3881 104.422 C 117.2139 104.584 115.8461 105.2253 114.6445 105.9173 C 116.2022 104.1272 117.6875 102.2112 119.0808 100.184 C 120.2725 100.6154 123.0102 101.3777 126.4778 100.8545 C 130.2272 100.2884 132.7516 96.4027 132.7516 96.4027 C 132.7516 96.4027 128.0982 94.1578 124.3664 95.3584 C 123.155 95.7468 121.8204 96.7287 120.7207 97.6823 C 122.0357 95.5623 123.2451 93.3389 124.3233 91.0266 C 125.5503 91.2394 128.3193 91.5078 131.5697 90.4166 C 135.0921 89.2336 136.8631 85.0541 136.8631 85.0541 C 136.8631 85.0541 131.9904 83.6769 128.5932 85.468 C 127.5111 86.041 126.4074 87.1868 125.517 88.2751 C 126.4524 85.9765 127.2567 83.6008 127.9025 81.1626 C 129.1333 81.1597 131.8397 80.943 134.777 79.3452 Z" fill="#E1E3E4"/>
</g>
</svg>
